<?xml version="1.0" encoding="UTF-8" standalone="no"?>
<svg
   xmlns:dc="http://purl.org/dc/elements/1.1/"
   xmlns:cc="http://creativecommons.org/ns#"
   xmlns:rdf="http://www.w3.org/1999/02/22-rdf-syntax-ns#"
   xmlns:svg="http://www.w3.org/2000/svg"
   xmlns="http://www.w3.org/2000/svg"
   xmlns:sodipodi="http://sodipodi.sourceforge.net/DTD/sodipodi-0.dtd"
   xmlns:inkscape="http://www.inkscape.org/namespaces/inkscape"
   version="1.1"
   id="Capa_1"
   x="0px"
   y="0px"
   viewBox="0 0 448 448"
   style="enable-background:new 0 0 448 448;"
   xml:space="preserve"
   sodipodi:docname="wind.svg"
   inkscape:version="1.0.1 (3bc2e813f5, 2020-09-07)"><metadata
   id="metadata81"><rdf:RDF><cc:Work
       rdf:about=""><dc:format>image/svg+xml</dc:format><dc:type
         rdf:resource="http://purl.org/dc/dcmitype/StillImage" /></cc:Work></rdf:RDF></metadata><defs
   id="defs79" /><sodipodi:namedview
   pagecolor="#ffffff"
   bordercolor="#666666"
   borderopacity="1"
   objecttolerance="10"
   gridtolerance="10"
   guidetolerance="10"
   inkscape:pageopacity="0"
   inkscape:pageshadow="2"
   inkscape:window-width="1912"
   inkscape:window-height="2089"
   id="namedview77"
   showgrid="false"
   inkscape:zoom="2.234375"
   inkscape:cx="224"
   inkscape:cy="224"
   inkscape:window-x="3200"
   inkscape:window-y="67"
   inkscape:window-maximized="0"
   inkscape:current-layer="Capa_1"
   inkscape:document-rotation="0" />


<g
   id="g232"
   transform="translate(0,4.0279717)"><g
     id="g62"
     style="fill:#000000">
	<g
   id="g60"
   style="fill:#000000">
		<path
   d="m 384,112 c -35.297,0 -64,28.711 -64,64 0,8.836 7.156,16 16,16 8.844,0 16,-7.164 16,-16 0,-17.649 14.359,-32 32,-32 17.641,0 32,14.351 32,32 0,17.649 -14.359,32 -32,32 H 17.266 c -8.844,0 -16,7.164 -16,16 0,8.836 7.156,16 16,16 H 384 c 35.297,0 64,-28.711 64,-64 0,-35.289 -28.703,-64 -64,-64 z"
   id="path58"
   style="fill:#000000" />
	</g>
</g><g
     id="g68"
     style="fill:#000000">
	<g
   id="g66"
   style="fill:#000000">
		<path
   d="m 224,48 c -35.297,0 -64,28.711 -64,64 0,8.836 7.156,16 16,16 8.844,0 16,-7.164 16,-16 0,-17.649 14.359,-32 32,-32 17.641,0 32,14.351 32,32 0,17.649 -14.359,32 -32,32 H 16 c -8.844,0 -16,7.164 -16,16 0,8.836 7.156,16 16,16 h 208 c 35.297,0 64,-28.711 64,-64 0,-35.289 -28.703,-64 -64,-64 z"
   id="path64"
   style="fill:#000000" />
	</g>
</g><g
     id="g74"
     style="fill:#000000">
	<g
   id="g72"
   style="fill:#000000">
		<path
   d="M 224,272 H 16 c -8.844,0 -16,7.164 -16,16 0,8.836 7.156,16 16,16 h 208 c 17.641,0 32,14.351 32,32 0,17.649 -14.359,32 -32,32 -17.641,0 -32,-14.351 -32,-32 0,-8.836 -7.156,-16 -16,-16 -8.844,0 -16,7.164 -16,16 0,35.289 28.703,64 64,64 35.297,0 64,-28.711 64,-64 0,-35.289 -28.703,-64 -64,-64 z"
   id="path70"
   style="fill:#000000" />
	</g>
</g></g>
</svg>
