<?xml version="1.0" encoding="UTF-8" standalone="no"?>
<svg
   xmlns:dc="http://purl.org/dc/elements/1.1/"
   xmlns:cc="http://creativecommons.org/ns#"
   xmlns:rdf="http://www.w3.org/1999/02/22-rdf-syntax-ns#"
   xmlns:svg="http://www.w3.org/2000/svg"
   xmlns="http://www.w3.org/2000/svg"
   xmlns:sodipodi="http://sodipodi.sourceforge.net/DTD/sodipodi-0.dtd"
   xmlns:inkscape="http://www.inkscape.org/namespaces/inkscape"
   version="1.1"
   id="weather-icon-clear"
   x="0px"
   y="0px"
   viewBox="0 0 64 64"
   style="enable-background:new 0 0 64 64;"
   xml:space="preserve"
   sodipodi:docname="clear_sky.svg"
   inkscape:version="1.0.1 (3bc2e813f5, 2020-09-07)"><metadata
   id="metadata10"><rdf:RDF><cc:Work
       rdf:about=""><dc:format>image/svg+xml</dc:format><dc:type
         rdf:resource="http://purl.org/dc/dcmitype/StillImage" /></cc:Work></rdf:RDF></metadata><defs
   id="defs8" /><sodipodi:namedview
   pagecolor="#ffffff"
   bordercolor="#666666"
   borderopacity="1"
   objecttolerance="10"
   gridtolerance="10"
   guidetolerance="10"
   inkscape:pageopacity="0"
   inkscape:pageshadow="2"
   inkscape:window-width="1272"
   inkscape:window-height="2089"
   id="namedview6"
   showgrid="false"
   inkscape:zoom="15.640625"
   inkscape:cx="30.502841"
   inkscape:cy="36.654748"
   inkscape:window-x="4480"
   inkscape:window-y="67"
   inkscape:window-maximized="0"
   inkscape:current-layer="weather-icon-clear"
   inkscape:document-rotation="0"
   inkscape:snap-global="true" />
<g
   id="clear"
   transform="matrix(1.3888611,0,0,1.3956891,-13.69353,-13.918171)">
	<path
   d="m 32.9,19.2 c -0.7,0 -1.3,-0.6 -1.3,-1.3 v -4.6 c 0,-0.7 0.6,-1.3 1.3,-1.3 0.7,0 1.3,0.6 1.3,1.3 v 4.6 c 0,0.7 -0.6,1.3 -1.3,1.3 z m 0,34.6 c -0.7,0 -1.3,-0.6 -1.3,-1.3 v -4.6 c 0,-0.7 0.6,-1.3 1.3,-1.3 0.7,0 1.3,0.6 1.3,1.3 v 4.6 c 0,0.7 -0.6,1.3 -1.3,1.3 z m -15,-19.6 h -4.6 c -0.7,0 -1.3,-0.6 -1.3,-1.3 0,-0.7 0.6,-1.3 1.3,-1.3 h 4.6 c 0.7,0 1.3,0.6 1.3,1.3 0,0.7 -0.6,1.3 -1.3,1.3 z m 34.6,0 h -4.6 c -0.7,0 -1.3,-0.6 -1.3,-1.3 0,-0.7 0.6,-1.3 1.3,-1.3 h 4.6 c 0.7,0 1.3,0.6 1.3,1.3 0,0.7 -0.6,1.3 -1.3,1.3 z M 44,23.5 c -0.3,0 -0.7,-0.1 -0.9,-0.4 -0.5,-0.5 -0.5,-1.4 0,-1.9 L 46.3,18 c 0.5,-0.5 1.4,-0.5 1.9,0 0.5,0.5 0.5,1.4 0,1.9 L 45,23.1 c -0.3,0.3 -0.7,0.4 -1,0.4 z M 19.1,48.4 c -0.3,0 -0.7,-0.1 -0.9,-0.4 -0.5,-0.5 -0.5,-1.4 0,-1.9 l 3.2,-3.2 c 0.5,-0.5 1.4,-0.5 1.9,0 0.5,0.5 0.5,1.4 0,1.9 L 20,48 c -0.2,0.3 -0.6,0.4 -0.9,0.4 z m 28.1,-0.2 c -0.3,0 -0.7,-0.1 -0.9,-0.4 l -3.2,-3.2 c -0.5,-0.5 -0.5,-1.4 0,-1.9 0.5,-0.5 1.4,-0.5 1.9,0 l 3.2,3.2 c 0.5,0.5 0.5,1.4 0,1.9 -0.3,0.3 -0.6,0.4 -1,0.4 z M 22.3,23.7 c -0.3,0 -0.7,-0.1 -0.9,-0.4 l -3.2,-3.2 c -0.5,-0.5 -0.5,-1.4 0,-1.9 0.5,-0.5 1.4,-0.5 1.9,0 l 3.2,3.2 c 0.5,0.5 0.5,1.4 0,1.9 -0.3,0.3 -0.6,0.4 -1,0.4 z m 10.6,0.8 c 4.6,0 8.4,3.8 8.4,8.4 0,4.6 -3.8,8.4 -8.4,8.4 -4.6,0 -8.4,-3.8 -8.4,-8.4 0,-4.6 3.8,-8.4 8.4,-8.4 m 0,-2.7 c -6.1,0 -11.1,5 -11.1,11.1 0,6.1 5,11.1 11.1,11.1 C 39,44 44,39 44,32.9 44,26.8 39,21.8 32.9,21.8 Z"
   id="path2" />
</g>
</svg>
