<?xml version="1.0" encoding="UTF-8" standalone="no"?>
<svg
   xmlns:dc="http://purl.org/dc/elements/1.1/"
   xmlns:cc="http://creativecommons.org/ns#"
   xmlns:rdf="http://www.w3.org/1999/02/22-rdf-syntax-ns#"
   xmlns:svg="http://www.w3.org/2000/svg"
   xmlns="http://www.w3.org/2000/svg"
   xmlns:sodipodi="http://sodipodi.sourceforge.net/DTD/sodipodi-0.dtd"
   xmlns:inkscape="http://www.inkscape.org/namespaces/inkscape"
   version="1.1"
   id="weather-icon-chancerain"
   x="0px"
   y="0px"
   viewBox="0 0 64 64"
   style="enable-background:new 0 0 64 64;"
   xml:space="preserve"
   sodipodi:docname="drizzle.svg"
   inkscape:version="1.0.1 (3bc2e813f5, 2020-09-07)"><metadata
   id="metadata11"><rdf:RDF><cc:Work
       rdf:about=""><dc:format>image/svg+xml</dc:format><dc:type
         rdf:resource="http://purl.org/dc/dcmitype/StillImage" /></cc:Work></rdf:RDF></metadata><defs
   id="defs9" /><sodipodi:namedview
   pagecolor="#ffffff"
   bordercolor="#666666"
   borderopacity="1"
   objecttolerance="10"
   gridtolerance="10"
   guidetolerance="10"
   inkscape:pageopacity="0"
   inkscape:pageshadow="2"
   inkscape:window-width="3832"
   inkscape:window-height="2089"
   id="namedview7"
   showgrid="false"
   inkscape:zoom="15.640625"
   inkscape:cx="9.9420579"
   inkscape:cy="32"
   inkscape:window-x="3200"
   inkscape:window-y="67"
   inkscape:window-maximized="0"
   inkscape:current-layer="weather-icon-chancerain"
   inkscape:document-rotation="0" />
<path
   d="m 53.461053,23.654433 c 0.119228,-0.953825 0.238456,-1.907649 0.238456,-2.861474 0,-8.822878 -7.153684,-15.9765619 -15.976561,-15.9765619 -5.365264,0 -10.372843,2.7422457 -13.353545,7.1536839 -1.430736,-0.59614 -2.861473,-0.953824 -4.411438,-0.953824 -6.080632,0 -11.088211,4.888351 -11.088211,11.088211 v 0.357684 c -4.8883509,1.669193 -8.345965,6.19986 -8.345965,11.565123 0,6.676772 5.484491,12.161263 12.161263,12.161263 h 5.961404 c 1.907649,0 1.788421,-3.219158 0,-3.219158 h -5.961404 c -5.007579,0 -8.942105,-4.053754 -8.942105,-8.942105 0,-4.292211 2.980702,-7.988281 7.272912,-8.822877 l 1.549965,-0.357685 -0.238456,-1.549965 C 12.20814,22.819836 12.20814,22.462152 12.20814,21.98524 c 0,-4.292211 3.576842,-7.869053 7.869053,-7.869053 1.430737,0 2.861474,0.357684 4.172982,1.192281 l 1.430737,0.834596 0.834597,-1.549965 c 2.265333,-4.172983 6.557544,-6.796 11.326667,-6.796 7.034456,0 12.757403,5.722947 12.757403,12.757404 0,1.311509 -0.238456,2.623017 -0.59614,3.934526 l -0.715368,2.265334 2.503789,-0.119229 h 0.357684 c 4.530667,0 8.107509,3.696071 8.107509,8.107509 0,4.530667 -3.69607,8.107509 -8.107509,8.107509 h -6.796 c -2.026877,0 -2.384561,3.219158 0,3.219158 h 6.796 c 6.19986,0 11.326667,-5.126807 11.326667,-11.326667 -0.119228,-5.603719 -4.530667,-10.372842 -10.015158,-11.08821 z"
   id="path2"
   style="stroke-width:1.19228" />
<path
   d="m 23.408485,48.803055 c -0.357684,0 -0.596141,-0.119228 -0.953825,-0.238456 -0.715368,-0.476912 -0.834596,-1.549965 -0.357684,-2.146105 l 1.914743,-2.614517 c 0.476913,-0.715369 1.430737,-0.834597 2.146106,-0.357684 0.715368,0.476912 0.834596,1.430737 0.357684,2.146105 l -1.914743,2.614517 c -0.238457,0.357684 -0.715369,0.59614 -1.192281,0.59614 z m 6.915228,0 c -0.357684,0 -0.59614,-0.119228 -0.953825,-0.238456 -0.715368,-0.476912 -0.834596,-1.549965 -0.357684,-2.146105 l 1.914743,-2.614517 c 0.476913,-0.715369 1.549965,-0.834597 2.146106,-0.357684 0.715368,0.476912 0.834596,1.430737 0.357684,2.146105 l -1.914743,2.614517 c -0.238456,0.357684 -0.715369,0.59614 -1.192281,0.59614 z m 6.915228,0 c -0.357684,0 -0.59614,-0.119228 -0.953824,-0.238456 -0.715369,-0.476912 -0.834597,-1.549965 -0.357685,-2.146105 l 1.914744,-2.614517 c 0.476912,-0.715369 1.549965,-0.834597 2.146105,-0.357684 0.715368,0.476912 0.834596,1.430737 0.357684,2.146105 l -1.914743,2.614517 c -0.119228,0.357684 -0.59614,0.59614 -1.192281,0.59614 z"
   id="path4"
   sodipodi:nodetypes="scccsccssccccccssccccccs"
   style="stroke-width:1.19228" />
<path
   d="m 18.075144,59.183603 c -0.357685,0 -0.596141,-0.119228 -0.953825,-0.238456 -0.715368,-0.476912 -0.834596,-1.549965 -0.357684,-2.146105 l 0.867105,-1.341837 c 0.476912,-0.715369 1.430737,-0.834597 2.146105,-0.357685 0.715369,0.476913 0.834597,1.430737 0.357685,2.146106 l -0.867106,1.341837 c -0.238456,0.357684 -0.715368,0.59614 -1.19228,0.59614 z m 6.915228,0 c -0.357684,0 -0.59614,-0.119228 -0.953825,-0.238456 -0.715368,-0.476912 -0.834596,-1.549965 -0.357684,-2.146105 l 0.867105,-1.341837 c 0.476913,-0.715369 1.549965,-0.834597 2.146106,-0.357685 0.715368,0.476913 0.834596,1.430737 0.357684,2.146106 l -0.867105,1.341837 c -0.238457,0.357684 -0.715369,0.59614 -1.192281,0.59614 z m 6.915228,0 c -0.357684,0 -0.59614,-0.119228 -0.953824,-0.238456 -0.715369,-0.476912 -0.834597,-1.549965 -0.357685,-2.146105 l 0.867106,-1.341837 c 0.476912,-0.715369 1.549964,-0.834597 2.146105,-0.357685 0.715368,0.476913 0.834596,1.430737 0.357684,2.146106 l -0.867105,1.341837 c -0.119228,0.357684 -0.596141,0.59614 -1.192281,0.59614 z"
   id="path4-6"
   sodipodi:nodetypes="scccsccssccccccssccccccs"
   style="stroke-width:1.19228" /></svg>
