<?xml version="1.0" encoding="UTF-8" standalone="no"?>
<svg
   xmlns:dc="http://purl.org/dc/elements/1.1/"
   xmlns:cc="http://creativecommons.org/ns#"
   xmlns:rdf="http://www.w3.org/1999/02/22-rdf-syntax-ns#"
   xmlns:svg="http://www.w3.org/2000/svg"
   xmlns="http://www.w3.org/2000/svg"
   xmlns:sodipodi="http://sodipodi.sourceforge.net/DTD/sodipodi-0.dtd"
   xmlns:inkscape="http://www.inkscape.org/namespaces/inkscape"
   version="1.1"
   id="weather-icon-partlycloudy"
   x="0px"
   y="0px"
   viewBox="0 0 64 64"
   style="enable-background:new 0 0 64 64;"
   xml:space="preserve"
   sodipodi:docname="few_clouds.svg"
   inkscape:version="1.0.1 (3bc2e813f5, 2020-09-07)"><metadata
   id="metadata13"><rdf:RDF><cc:Work
       rdf:about=""><dc:format>image/svg+xml</dc:format><dc:type
         rdf:resource="http://purl.org/dc/dcmitype/StillImage" /></cc:Work></rdf:RDF></metadata><defs
   id="defs11" /><sodipodi:namedview
   pagecolor="#ffffff"
   bordercolor="#666666"
   borderopacity="1"
   objecttolerance="10"
   gridtolerance="10"
   guidetolerance="10"
   inkscape:pageopacity="0"
   inkscape:pageshadow="2"
   inkscape:window-width="3832"
   inkscape:window-height="2089"
   id="namedview9"
   showgrid="false"
   inkscape:zoom="15.640625"
   inkscape:cx="9.9420579"
   inkscape:cy="32"
   inkscape:window-x="3200"
   inkscape:window-y="67"
   inkscape:window-maximized="0"
   inkscape:current-layer="weather-icon-partlycloudy" />
<path
   d="m 35.845368,10.453736 c -0.854526,0 -1.586977,-0.7324505 -1.586977,-1.5869765 V 2.7630021 c 0,-0.8545261 0.732451,-1.586977 1.586977,-1.586977 0.854526,0 1.586976,0.7324509 1.586976,1.586977 v 6.1037574 c 0,0.854526 -0.73245,1.5869765 -1.586976,1.5869765 z M 15.947117,30.351986 H 9.8433605 c -0.854526,0 -1.586977,-0.732451 -1.586977,-1.586977 0,-0.854526 0.732451,-1.586977 1.586977,-1.586977 h 6.1037565 c 0.854527,0 1.586977,0.732451 1.586977,1.586977 0,0.854526 -0.73245,1.586977 -1.586977,1.586977 z m 45.778181,0 h -6.103757 c -0.854526,0 -1.586977,-0.732451 -1.586977,-1.586977 0,-0.854526 0.732451,-1.586977 1.586977,-1.586977 h 6.103757 c 0.854526,0 1.586977,0.732451 1.586977,1.586977 0,0.854526 -0.732451,1.586977 -1.586977,1.586977 z M 50.494384,16.191268 c -0.366225,0 -0.854526,-0.122075 -1.098676,-0.4883 -0.610376,-0.610376 -0.610376,-1.709052 0,-2.319428 l 4.27263,-4.2726303 c 0.610376,-0.6103757 1.709052,-0.6103757 2.319428,0 0.610377,0.6103758 0.610377,1.7090523 0,2.3194283 l -4.27263,4.27263 c -0.366225,0.24415 -0.854526,0.4883 -1.220752,0.4883 z m 4.272631,32.71614 c -0.366226,0 -0.854527,-0.122075 -1.098677,-0.4883 l -4.27263,-4.272631 c -0.610376,-0.610375 -0.610376,-1.709052 0,-2.319427 0.610376,-0.610376 1.586977,-0.610376 2.319428,0 l 4.27263,4.27263 c 0.610376,0.610375 0.610376,1.709052 0,2.319428 -0.366225,0.24415 -0.854526,0.4883 -1.220751,0.4883 z M 21.806725,16.435419 c -0.366226,0 -0.854526,-0.122075 -1.098677,-0.488301 l -4.27263,-4.27263 c -0.610375,-0.610376 -0.610375,-1.7090523 0,-2.319428 0.610376,-0.6103756 1.586978,-0.6103756 2.319428,0 l 4.27263,4.27263 c 0.610376,0.610376 0.610376,1.709052 0,2.319428 -0.366225,0.366226 -0.854526,0.488301 -1.220751,0.488301 z"
   id="path2"
   style="stroke-width:1.22075" />
<path
   d="M 33.281788,62.823975 H 8.8667595 c -4.516781,0 -8.179035,-3.662254 -8.179035,-8.179035 0,-3.418104 2.0752775,-6.469983 5.249231,-7.690734 0.122076,-4.02848 3.418105,-7.324509 7.5686605,-7.324509 0.854526,0 1.709052,0.122075 2.441502,0.4883 1.953202,-2.685653 5.127157,-4.394705 8.54526,-4.394705 5.859607,0 10.620538,4.760931 10.620538,10.620538 0,0.488301 0,0.854526 -0.122075,1.342827 3.418104,0.732451 6.103757,3.784329 6.103757,7.568659 -0.122075,4.150555 -3.540178,7.568659 -7.81281,7.568659 z M 13.383539,42.925726 c -2.319427,0 -4.2726295,1.953202 -4.2726295,4.27263 0,0.24415 0,0.488301 0.122075,0.732451 l 0.244151,1.586977 -1.586977,0.366225 c -2.319428,0.488301 -4.0284802,2.563578 -4.0284802,4.883006 0,2.685653 2.1973532,5.005081 5.0050812,5.005081 H 33.281788 c 2.441503,0 4.394706,-1.953202 4.394706,-4.394705 0,-2.441503 -1.953203,-4.394705 -4.394706,-4.394705 h -0.24415 l -2.441502,0.122075 0.73245,-2.319428 c 0.24415,-0.732451 0.366226,-1.464902 0.366226,-2.319428 0,-4.02848 -3.296029,-7.324509 -7.324509,-7.324509 -2.685654,0 -5.249232,1.464902 -6.469983,3.906405 l -0.854526,1.586977 -1.464901,-0.854526 c -0.610376,-0.610376 -1.464902,-0.854526 -2.197354,-0.854526 z"
   id="path4"
   style="stroke-width:1.22075" />
<path
   d="m 50.494384,28.765009 c 0,-8.05696 -6.592058,-14.649018 -14.649017,-14.649018 -8.05696,0 -14.649018,6.592058 -14.649018,14.649018 0,0.854526 0.122075,1.709052 0.24415,2.441503 0,0.976601 0.854526,1.709052 1.709052,1.586977 0.488301,0 1.220752,-0.366226 1.342827,-0.854526 0.24415,-0.610376 0.122075,-1.220752 0,-1.831128 -0.122075,-0.4883 -0.122075,-0.976601 -0.122075,-1.342826 0,-6.347908 5.127156,-11.475064 11.475064,-11.475064 6.347907,0 11.352988,5.127156 11.352988,11.475064 0,0.4883 -0.122075,0.976601 -0.122075,1.464902 -0.122075,0.4883 -0.122075,0.976601 -0.24415,1.464901 -0.24415,0.854526 -0.610376,1.831127 -0.976601,2.563578 -0.488301,0.854526 -0.976601,1.586977 -1.586977,2.319428 -0.610376,0.732451 -1.342827,1.342827 -2.075278,1.709052 -0.854526,0.488301 -1.709052,0.854526 -2.563578,1.220752 -0.366225,0.122075 -0.732451,0.122075 -1.098676,0.366225 -0.366226,0.122075 -0.610376,0.488301 -0.732451,0.854526 -0.122075,0.244151 -0.122075,0.366226 -0.122075,0.610376 0,0.854526 0.732451,1.586977 1.709052,1.709052 6.225832,-1.342827 11.108838,-7.446584 11.108838,-14.282792 z"
   id="path6"
   style="stroke-width:1.22075" />
</svg>
