<?xml version="1.0" encoding="UTF-8" standalone="no"?>
<svg
   xmlns:dc="http://purl.org/dc/elements/1.1/"
   xmlns:cc="http://creativecommons.org/ns#"
   xmlns:rdf="http://www.w3.org/1999/02/22-rdf-syntax-ns#"
   xmlns:svg="http://www.w3.org/2000/svg"
   xmlns="http://www.w3.org/2000/svg"
   xmlns:sodipodi="http://sodipodi.sourceforge.net/DTD/sodipodi-0.dtd"
   xmlns:inkscape="http://www.inkscape.org/namespaces/inkscape"
   version="1.1"
   id="weather-icon-mostlysunny"
   x="0px"
   y="0px"
   viewBox="0 0 64 64"
   style="enable-background:new 0 0 64 64;"
   xml:space="preserve"
   sodipodi:docname="night_few_clouds.svg"
   inkscape:version="1.0.1 (3bc2e813f5, 2020-09-07)"><metadata
   id="metadata45"><rdf:RDF><cc:Work
       rdf:about=""><dc:format>image/svg+xml</dc:format><dc:type
         rdf:resource="http://purl.org/dc/dcmitype/StillImage" /></cc:Work></rdf:RDF></metadata><defs
   id="defs43" /><sodipodi:namedview
   pagecolor="#ffffff"
   bordercolor="#666666"
   borderopacity="1"
   objecttolerance="10"
   gridtolerance="10"
   guidetolerance="10"
   inkscape:pageopacity="0"
   inkscape:pageshadow="2"
   inkscape:window-width="1912"
   inkscape:window-height="2089"
   id="namedview41"
   showgrid="false"
   showguides="true"
   inkscape:guide-bbox="true"
   inkscape:zoom="15.640625"
   inkscape:cx="32"
   inkscape:cy="32"
   inkscape:window-x="5120"
   inkscape:window-y="67"
   inkscape:window-maximized="0"
   inkscape:current-layer="weather-icon-mostlysunny" />

<g
   id="g53"
   transform="translate(0,-4.2837181)"><path
     d="M 40.2,58.2 H 15.1 c -4.6,0 -8.4,-3.8 -8.4,-8.4 0,-3.5 2.1,-6.7 5.4,-7.9 0.1,-4.1 3.5,-7.5 7.8,-7.5 0.9,0 1.8,0.1 2.5,0.5 2,-2.8 5.3,-4.5 8.8,-4.5 6,0 10.9,4.9 10.9,10.9 0,0.5 0,0.9 -0.1,1.4 3.5,0.8 6.3,3.9 6.3,7.8 -0.2,4.2 -3.7,7.7 -8.1,7.7 z M 19.8,37.7 c -2.4,0 -4.4,2 -4.4,4.4 0,0.3 0,0.5 0.1,0.8 l 0.3,1.6 -1.6,0.4 c -2.4,0.5 -4.1,2.6 -4.1,5 0,2.8 2.3,5.1 5.1,5.1 h 25.1 c 2.5,0 4.5,-2 4.5,-4.5 0,-2.5 -2,-4.5 -4.5,-4.5 H 40 l -2.5,0.1 0.8,-2.4 c 0.3,-0.8 0.4,-1.5 0.4,-2.4 0,-4.1 -3.4,-7.5 -7.5,-7.5 -2.8,0 -5.4,1.5 -6.7,4 L 23.6,39.4 22,38.6 C 21.4,38 20.5,37.7 19.8,37.7 Z"
     id="path36" /><path
     d="m 58.1,24.7 c 0,0 -1.1,0 -1.6,0 -5,0 -9.8,-2.3 -12.3,-5.9 -2.1,-3.1 -2.4,-7.4 -0.9,-11.4 v 0 H 43 c -4.1,0 -8.1,1.5 -10.9,4.4 -2.9,2.9 -4.6,6.9 -4.6,11.1 0,1.3 0.2,2.7 0.5,4 l 0.1,0.4 0.4,-0.1 C 29.2,27 30,26.9 30.8,26.8 h 0.5 l -0.1,-0.4 c -0.3,-1.1 -0.5,-2.3 -0.5,-3.4 0,-5.3 3.6,-10.2 8.8,-12 -0.5,4.1 0.6,8 3.1,11.1 2.7,3.5 6.9,5.7 11.7,6.2 -2.2,4.2 -5,6.4 -9,7.1 l -0.4,0.1 0.2,0.4 c 0.3,0.7 0.5,1.4 0.6,2.1 l 0.1,0.4 0.4,-0.1 C 52.7,37 57.7,31.9 58.6,25.4 L 58.7,25 Z"
     id="path38" /></g>
</svg>
