<?xml version="1.0" encoding="UTF-8" standalone="no"?>
<svg
   xmlns:dc="http://purl.org/dc/elements/1.1/"
   xmlns:cc="http://creativecommons.org/ns#"
   xmlns:rdf="http://www.w3.org/1999/02/22-rdf-syntax-ns#"
   xmlns:svg="http://www.w3.org/2000/svg"
   xmlns="http://www.w3.org/2000/svg"
   xmlns:sodipodi="http://sodipodi.sourceforge.net/DTD/sodipodi-0.dtd"
   xmlns:inkscape="http://www.inkscape.org/namespaces/inkscape"
   id="weather-icon-cloudy"
   class="weather-icon weather-icon-black cloudy"
   viewBox="0 0 64 64"
   version="1.1"
   sodipodi:docname="overcast.svg"
   inkscape:version="1.0.1 (3bc2e813f5, 2020-09-07)">
  <metadata
     id="metadata20">
    <rdf:RDF>
      <cc:Work
         rdf:about="">
        <dc:format>image/svg+xml</dc:format>
        <dc:type
           rdf:resource="http://purl.org/dc/dcmitype/StillImage" />
      </cc:Work>
    </rdf:RDF>
  </metadata>
  <defs
     id="defs18" />
  <sodipodi:namedview
     pagecolor="#ffffff"
     bordercolor="#666666"
     borderopacity="1"
     objecttolerance="10"
     gridtolerance="10"
     guidetolerance="10"
     inkscape:pageopacity="0"
     inkscape:pageshadow="2"
     inkscape:window-width="3832"
     inkscape:window-height="2089"
     id="namedview16"
     showgrid="false"
     inkscape:zoom="15.640625"
     inkscape:cx="9.9420579"
     inkscape:cy="32"
     inkscape:window-x="3200"
     inkscape:window-y="67"
     inkscape:window-maximized="0"
     inkscape:current-layer="weather-icon-cloudy"
     inkscape:document-rotation="0" />
  <path
     d="M 52.166061,46.888428 H 12.556304 c -6.7420849,0 -12.28022738,-5.538144 -12.28022738,-12.280229 0,-5.297353 3.49143758,-9.992735 8.42760818,-11.678257 V 22.56876 c 0,-6.140115 5.0565652,-11.19668 11.1966782,-11.19668 1.565127,0 3.009859,0.361183 4.454591,0.963156 3.00986,-4.454592 7.946031,-7.223664 13.484173,-7.223664 8.909186,0 16.132849,7.223664 16.132849,16.13285 0,0.963154 -0.120394,1.926309 -0.240789,2.889465 5.658537,0.722366 9.992736,5.538141 9.992736,11.317073 -0.120396,6.260509 -5.297354,11.437468 -11.557862,11.437468 z M 19.900363,14.62273 c -4.334199,0 -7.94603,3.611833 -7.94603,7.94603 0,0.361182 0,0.842761 0.120394,1.32434 l 0.240788,1.565126 -1.565127,0.240787 c -4.2138026,0.842761 -7.3440572,4.574988 -7.3440572,8.909186 0,5.056564 4.0934092,9.029579 9.0295792,9.029579 h 39.609756 c 4.574987,0 8.186819,-3.732226 8.186819,-8.186818 0,-4.574988 -3.732227,-8.18682 -8.186819,-8.18682 h -0.361182 l -2.407889,0.120394 0.722366,-2.287493 c 0.361184,-1.324338 0.601972,-2.648677 0.601972,-3.973014 0,-7.103269 -5.778931,-12.882201 -12.882201,-12.882201 -4.815775,0 -9.149973,2.648676 -11.437467,6.862481 l -0.842761,1.565127 -1.444732,-0.842761 C 22.789827,14.983912 21.345096,14.622729 19.900363,14.62273 Z"
     id="path13"
     style="stroke-width:1.20394" />
</svg>
