<?xml version="1.0" encoding="UTF-8" standalone="no"?>
<svg
   xmlns:dc="http://purl.org/dc/elements/1.1/"
   xmlns:cc="http://creativecommons.org/ns#"
   xmlns:rdf="http://www.w3.org/1999/02/22-rdf-syntax-ns#"
   xmlns:svg="http://www.w3.org/2000/svg"
   xmlns="http://www.w3.org/2000/svg"
   xmlns:sodipodi="http://sodipodi.sourceforge.net/DTD/sodipodi-0.dtd"
   xmlns:inkscape="http://www.inkscape.org/namespaces/inkscape"
   id="weather-icon-cloudy"
   class="weather-icon weather-icon-black cloudy"
   viewBox="0 0 64 64"
   version="1.1"
   sodipodi:docname="overcast.svg"
   inkscape:version="1.0.1 (3bc2e813f5, 2020-09-07)">
  <metadata
     id="metadata20">
    <rdf:RDF>
      <cc:Work
         rdf:about="">
        <dc:format>image/svg+xml</dc:format>
        <dc:type
           rdf:resource="http://purl.org/dc/dcmitype/StillImage" />
      </cc:Work>
    </rdf:RDF>
  </metadata>
  <defs
     id="defs18" />
  <sodipodi:namedview
     pagecolor="#ffffff"
     bordercolor="#666666"
     borderopacity="1"
     objecttolerance="10"
     gridtolerance="10"
     guidetolerance="10"
     inkscape:pageopacity="0"
     inkscape:pageshadow="2"
     inkscape:window-width="3832"
     inkscape:window-height="2089"
     id="namedview16"
     showgrid="false"
     inkscape:zoom="15.640625"
     inkscape:cx="9.9420579"
     inkscape:cy="32"
     inkscape:window-x="3200"
     inkscape:window-y="67"
     inkscape:window-maximized="0"
     inkscape:current-layer="weather-icon-cloudy"
     inkscape:document-rotation="0" />
  <path
     d="M 52.135105,46.888428 H 12.695393 c -6.7131408,0 -12.2275082,-5.514369 -12.2275082,-12.22751 0,-5.274611 3.476449,-9.949836 8.3914286,-11.628122 v -0.359632 c 0,-6.113755 5.0348566,-11.148612 11.1486106,-11.148612 1.558408,0 2.996938,0.359632 4.435467,0.959021 C 27.44033,8.0481044 32.35531,5.29092 37.869677,5.29092 c 8.870939,0 16.063591,7.192653 16.063591,16.063592 0,0.959019 -0.119878,1.918039 -0.239756,2.87706 5.634245,0.719265 9.949837,5.514366 9.949837,11.268489 -0.119879,6.233633 -5.274612,11.388367 -11.508244,11.388367 z M 20.007924,14.761247 c -4.315592,0 -7.911918,3.596327 -7.911918,7.911917 0,0.359632 0,0.839143 0.119877,1.318655 l 0.239755,1.558407 -1.558408,0.239753 c -4.1957127,0.839143 -7.3125291,4.555348 -7.3125291,8.870939 0,5.034856 4.0758362,8.990815 8.9908151,8.990815 h 39.439711 c 4.555347,0 8.151673,-3.716204 8.151673,-8.151672 0,-4.555348 -3.716204,-8.151674 -8.151673,-8.151674 h -0.359631 l -2.397552,0.119877 0.719265,-2.277673 c 0.359633,-1.318652 0.599387,-2.637306 0.599387,-3.955957 0,-7.072775 -5.754122,-12.8268982 -12.826897,-12.8268982 -4.795101,0 -9.110692,2.6373052 -11.388366,6.8330202 l -0.839143,1.558408 -1.43853,-0.839143 c -1.198777,-0.839143 -2.637305,-1.198775 -4.075836,-1.198774 z"
     id="path13"
     style="stroke-width:1.19877" />
</svg>
