<?xml version="1.0" encoding="UTF-8" standalone="no"?>
<svg
   xmlns:dc="http://purl.org/dc/elements/1.1/"
   xmlns:cc="http://creativecommons.org/ns#"
   xmlns:rdf="http://www.w3.org/1999/02/22-rdf-syntax-ns#"
   xmlns:svg="http://www.w3.org/2000/svg"
   xmlns="http://www.w3.org/2000/svg"
   xmlns:sodipodi="http://sodipodi.sourceforge.net/DTD/sodipodi-0.dtd"
   xmlns:inkscape="http://www.inkscape.org/namespaces/inkscape"
   version="1.1"
   id="weather-icon-rain"
   x="0px"
   y="0px"
   viewBox="0 0 64 64"
   style="enable-background:new 0 0 64 64;"
   xml:space="preserve"
   sodipodi:docname="rain.svg"
   inkscape:version="1.0.1 (3bc2e813f5, 2020-09-07)"><metadata
   id="metadata31"><rdf:RDF><cc:Work
       rdf:about=""><dc:format>image/svg+xml</dc:format><dc:type
         rdf:resource="http://purl.org/dc/dcmitype/StillImage" /></cc:Work></rdf:RDF></metadata><defs
   id="defs29" /><sodipodi:namedview
   pagecolor="#ffffff"
   bordercolor="#666666"
   borderopacity="1"
   objecttolerance="10"
   gridtolerance="10"
   guidetolerance="10"
   inkscape:pageopacity="0"
   inkscape:pageshadow="2"
   inkscape:window-width="3832"
   inkscape:window-height="2089"
   id="namedview27"
   showgrid="false"
   inkscape:zoom="44.238368"
   inkscape:cx="36.127389"
   inkscape:cy="50.486743"
   inkscape:window-x="3200"
   inkscape:window-y="67"
   inkscape:window-maximized="1"
   inkscape:current-layer="weather-icon-rain"
   inkscape:document-rotation="0"
   showguides="true"
   inkscape:guide-bbox="true" />
<path
   d="m 29.908309,47.134924 c -0.232723,0 -0.349085,0 -0.581807,-0.116362 -0.814531,-0.349084 -1.163617,-1.279977 -0.814531,-1.978148 l 4.30256,-9.969449 c 0.349086,-0.814531 1.27998,-1.163617 1.978149,-0.814531 0.814531,0.349085 1.163616,1.279978 0.814531,1.978149 l -4.30256,9.969448 c -0.232724,0.581808 -0.814533,0.930893 -1.396342,0.930893 z m 7.741803,-2.054895 c -0.232724,0 -0.349086,0 -0.581808,-0.116361 -0.814533,-0.349086 -1.163616,-1.279979 -0.814533,-1.97815 l 3.309735,-7.798191 c 0.349085,-0.814531 1.27998,-1.163616 1.97815,-0.814531 0.814531,0.349084 1.163615,1.279977 0.814531,1.978148 l -3.309735,7.798192 c -0.232722,0.581808 -0.814532,0.930893 -1.39634,0.930893 z M 23.995649,43.875966 c -0.232724,0 -0.349086,0 -0.581809,-0.116362 -0.814532,-0.349085 -1.163616,-1.279978 -0.814532,-1.978149 l 2.884439,-6.594128 c 0.349085,-0.814531 1.279979,-1.163616 1.978148,-0.814531 0.814533,0.349084 1.163617,1.279977 0.814533,1.978148 l -2.88444,6.594129 c -0.232723,0.581807 -0.69817,0.930893 -1.396339,0.930893 z"
   id="path22"
   style="stroke-width:1.16362"
   sodipodi:nodetypes="sccccccssccccccssccccccs" />
<path
   d="m 52.945098,19.711227 c 0.116362,-0.930894 0.232722,-1.861786 0.232722,-2.792678 0,-8.6107631 -6.981698,-15.5924623 -15.59246,-15.5924623 -5.236275,0 -10.123465,2.676318 -13.032505,6.9816992 -1.396341,-0.5818083 -2.792681,-0.9308932 -4.305381,-0.9308932 -5.934446,0 -10.8216348,4.8871893 -10.8216348,10.8216323 v 0.349086 c -4.770827,1.629064 -8.145315,6.050807 -8.145315,11.28708 0,6.516253 5.3526361,11.868889 11.8688878,11.868889 h 5.818082 c 1.861787,0 1.745426,-3.141765 0,-3.141765 h -5.818082 c -4.8871887,0 -8.7271232,-3.956296 -8.7271232,-8.727124 0,-4.189019 2.9090412,-7.796231 7.0980602,-8.610761 l 1.512703,-0.349086 -0.232724,-1.512701 c -0.116361,-0.465447 -0.116361,-0.814532 -0.116361,-1.279979 0,-4.189019 3.490847,-7.679868 7.679869,-7.679868 1.39634,0 2.792679,0.349084 4.072658,1.163617 l 1.396339,0.81453 0.81453,-1.512702 c 2.210873,-4.0726566 6.399891,-6.632613 11.054359,-6.632613 6.865337,0 12.450696,5.5853599 12.450696,12.450696 0,1.279978 -0.232723,2.559957 -0.581807,3.839935 l -0.698171,2.210871 2.443596,-0.116362 h 0.349085 c 4.421741,0 7.91259,3.607211 7.91259,7.912593 0,4.421742 -3.60721,7.912593 -7.91259,7.912593 h -6.632614 c -1.978149,0 -2.327235,3.141764 0,3.141764 h 6.632614 c 6.050805,0 11.054355,-5.003551 11.054355,-11.054357 -0.116361,-5.468998 -4.30538,-10.123463 -9.774378,-10.821634 z"
   id="path24"
   style="stroke-width:1.16362" />
<path
   d="m 17.892701,58.837564 c -0.344575,0 -0.574291,-0.114858 -0.918864,-0.229716 -0.689147,-0.459431 -0.616398,-1.377277 -0.344574,-2.067442 l 1.134393,-2.316135 c 0.459432,-0.689148 1.378295,-0.804006 2.067442,-0.344574 0.689148,0.459432 0.804006,1.378295 0.344575,2.067443 l -1.134394,2.316135 c -0.229716,0.344573 -0.689147,0.574289 -1.148578,0.574289 z m 6.049063,3.147859 c -0.344573,0 -0.574289,-0.114858 -0.918863,-0.229716 C 22.333753,61.296276 22.356189,60.3386 22.678327,59.688265 L 23.81272,57.37213 c 0.459432,-0.689148 1.493153,-0.804006 2.067443,-0.344574 0.689147,0.459432 0.804005,1.378295 0.344573,2.067443 l -1.134392,2.316135 c -0.229717,0.344573 -0.689148,0.574289 -1.14858,0.574289 z m 7.590099,-1.669605 c -0.344574,0 -0.574289,-0.114858 -0.918863,-0.229716 -0.689148,-0.459431 -0.624006,-1.442078 -0.344574,-2.067442 l 1.122931,-2.38661 c 0.459431,-0.689148 1.493152,-0.804006 2.067442,-0.344575 0.689147,0.459432 0.804005,1.378295 0.344573,2.067443 l -1.12293,2.386611 c -0.114858,0.344573 -0.57429,0.574289 -1.148579,0.574289 z"
   id="path4-6"
   sodipodi:nodetypes="scccsccssccccccssccccccs"
   style="stroke-width:1.14858" /><path
   d="m 20.824815,51.490017 c -0.344575,0 -0.57429,-0.114858 -0.918864,-0.229716 -0.689147,-0.459431 -0.630382,-1.379274 -0.344574,-2.067442 l 1.07728,-2.401951 c 0.459432,-0.689148 1.378295,-0.804005 2.067442,-0.344574 0.689148,0.459432 0.804006,1.378295 0.344575,2.067443 l -1.077281,2.401951 c -0.229716,0.344573 -0.689147,0.574289 -1.148578,0.574289 z m 6.049063,3.147859 c -0.344573,0 -0.574289,-0.114858 -0.918863,-0.229716 -0.689147,-0.459431 -0.651549,-1.445012 -0.344574,-2.067442 l 1.07728,-2.401951 c 0.459432,-0.689148 1.493153,-0.804005 2.067443,-0.344574 0.689147,0.459432 0.804005,1.378295 0.344574,2.067443 l -1.07728,2.401951 c -0.229717,0.344573 -0.689148,0.574289 -1.14858,0.574289 z m 7.590099,-1.669605 c -0.344574,0 -0.574289,-0.114858 -0.918863,-0.229716 -0.689148,-0.459431 -0.631744,-1.474569 -0.344574,-2.067442 l 1.065818,-2.472426 c 0.459431,-0.689148 1.493152,-0.804006 2.067442,-0.344575 0.689147,0.459433 0.804005,1.378295 0.344573,2.067443 l -1.065817,2.472426 c -0.114857,0.344574 -0.57429,0.57429 -1.148579,0.57429 z"
   id="path4-6-3"
   sodipodi:nodetypes="scccsccssccccccssccccccs"
   style="stroke-width:1.14858" /></svg>
