<?xml version="1.0" encoding="UTF-8" standalone="no"?>
<svg
   xmlns:dc="http://purl.org/dc/elements/1.1/"
   xmlns:cc="http://creativecommons.org/ns#"
   xmlns:rdf="http://www.w3.org/1999/02/22-rdf-syntax-ns#"
   xmlns:svg="http://www.w3.org/2000/svg"
   xmlns="http://www.w3.org/2000/svg"
   xmlns:sodipodi="http://sodipodi.sourceforge.net/DTD/sodipodi-0.dtd"
   xmlns:inkscape="http://www.inkscape.org/namespaces/inkscape"
   version="1.1"
   id="weather-icon-rain"
   x="0px"
   y="0px"
   viewBox="0 0 64 64"
   style="enable-background:new 0 0 64 64;"
   xml:space="preserve"
   sodipodi:docname="rain.svg"
   inkscape:version="1.0.1 (3bc2e813f5, 2020-09-07)"><metadata
   id="metadata31"><rdf:RDF><cc:Work
       rdf:about=""><dc:format>image/svg+xml</dc:format><dc:type
         rdf:resource="http://purl.org/dc/dcmitype/StillImage" /></cc:Work></rdf:RDF></metadata><defs
   id="defs29" /><sodipodi:namedview
   pagecolor="#ffffff"
   bordercolor="#666666"
   borderopacity="1"
   objecttolerance="10"
   gridtolerance="10"
   guidetolerance="10"
   inkscape:pageopacity="0"
   inkscape:pageshadow="2"
   inkscape:window-width="3832"
   inkscape:window-height="2089"
   id="namedview27"
   showgrid="false"
   inkscape:zoom="15.640625"
   inkscape:cx="32"
   inkscape:cy="32"
   inkscape:window-x="3200"
   inkscape:window-y="67"
   inkscape:window-maximized="0"
   inkscape:current-layer="weather-icon-rain" />
<path
   d="m 23.061611,63.827909 c -0.241578,0 -0.362367,0 -0.603944,-0.120789 -0.845523,-0.362366 -1.207891,-1.328678 -0.845523,-2.053414 L 32.845523,35.200908 c 0.362368,-0.845522 1.328681,-1.20789 2.053414,-0.845522 0.845523,0.362367 1.20789,1.328679 0.845523,2.053414 L 24.511081,62.861597 c -0.241578,0.603945 -0.845524,0.966312 -1.44947,0.966312 z m 10.267068,-7.005763 c -0.241579,0 -0.362368,0 -0.603945,-0.120789 -0.845524,-0.362368 -1.20789,-1.32868 -0.845524,-2.053415 l 7.972076,-19.326244 c 0.362367,-0.845523 1.328681,-1.20789 2.053415,-0.845523 0.845523,0.362366 1.207889,1.328678 0.845523,2.053414 l -7.972076,19.326245 c -0.241577,0.603944 -0.845524,0.966312 -1.449469,0.966312 z m -14.615472,0 c -0.241579,0 -0.362368,0 -0.603946,-0.120789 -0.845523,-0.362368 -1.207889,-1.32868 -0.845523,-2.053415 l 7.972076,-19.326244 c 0.362367,-0.845523 1.32868,-1.20789 2.053413,-0.845523 0.845525,0.362366 1.207891,1.328678 0.845525,2.053414 l -7.972077,19.326245 c -0.241578,0.603944 -0.724735,0.966312 -1.449468,0.966312 z"
   id="path22"
   style="stroke-width:1.20789" />
<path
   d="m 53.742026,19.256756 c 0.120789,-0.966313 0.241577,-1.932623 0.241577,-2.898935 0,-8.9383886 -7.247341,-16.18573041 -16.185729,-16.18573041 -5.435507,0 -10.508647,2.77814761 -13.528371,7.24734181 -1.44947,-0.6039452 -2.898938,-0.9663122 -4.469194,-0.9663122 -6.160242,0 -11.2333811,5.0731388 -11.2333811,11.2333788 v 0.362368 c -4.9523495,1.691047 -8.45523145,6.28103 -8.45523145,11.716535 0,6.764187 5.55629555,12.320482 12.32048055,12.320482 h 6.039451 c 1.932625,0 1.811836,-3.261304 0,-3.261304 h -6.039451 c -5.0731388,0 -9.0591767,-4.106827 -9.0591767,-9.059178 0,-4.348404 3.0197256,-8.092865 7.3681307,-8.938387 l 1.570258,-0.362368 -0.241578,-1.570257 c -0.120789,-0.483156 -0.120789,-0.845523 -0.120789,-1.32868 0,-4.348404 3.623669,-7.9720748 7.972076,-7.9720748 1.449469,0 2.898936,0.3623662 4.227616,1.2078908 l 1.449468,0.845522 0.845522,-1.570258 c 2.294993,-4.227615 6.643396,-6.8849737 11.47496,-6.8849737 7.126552,0 12.924425,5.797874 12.924425,12.9244257 0,1.328679 -0.241578,2.657359 -0.603944,3.986038 l -0.724735,2.294991 2.536571,-0.120789 h 0.362367 c 4.589981,0 8.213652,3.74446 8.213652,8.213655 0,4.589982 -3.744459,8.213654 -8.213652,8.213654 h -6.884975 c -2.053414,0 -2.415782,3.261304 0,3.261304 h 6.884975 c 6.281029,0 11.474956,-5.193929 11.474956,-11.474958 C 63.767515,24.813052 59.419111,19.981492 53.742026,19.256756 Z"
   id="path24"
   style="stroke-width:1.20789" />
</svg>
