<?xml version="1.0" encoding="UTF-8" standalone="no"?>
<svg
   xmlns:dc="http://purl.org/dc/elements/1.1/"
   xmlns:cc="http://creativecommons.org/ns#"
   xmlns:rdf="http://www.w3.org/1999/02/22-rdf-syntax-ns#"
   xmlns:svg="http://www.w3.org/2000/svg"
   xmlns="http://www.w3.org/2000/svg"
   xmlns:sodipodi="http://sodipodi.sourceforge.net/DTD/sodipodi-0.dtd"
   xmlns:inkscape="http://www.inkscape.org/namespaces/inkscape"
   version="1.1"
   id="weather-icon-partlysunny"
   x="0px"
   y="0px"
   viewBox="0 0 64 64"
   style="enable-background:new 0 0 64 64;"
   xml:space="preserve"
   sodipodi:docname="scattered_clouds.svg"
   inkscape:version="1.0.1 (3bc2e813f5, 2020-09-07)"><metadata
   id="metadata44"><rdf:RDF><cc:Work
       rdf:about=""><dc:format>image/svg+xml</dc:format><dc:type
         rdf:resource="http://purl.org/dc/dcmitype/StillImage" /></cc:Work></rdf:RDF></metadata><defs
   id="defs42" /><sodipodi:namedview
   pagecolor="#ffffff"
   bordercolor="#666666"
   borderopacity="1"
   objecttolerance="10"
   gridtolerance="10"
   guidetolerance="10"
   inkscape:pageopacity="0"
   inkscape:pageshadow="2"
   inkscape:window-width="3832"
   inkscape:window-height="2089"
   id="namedview40"
   showgrid="false"
   inkscape:zoom="15.640625"
   inkscape:cx="32"
   inkscape:cy="32"
   inkscape:window-x="3200"
   inkscape:window-y="67"
   inkscape:window-maximized="0"
   inkscape:current-layer="weather-icon-partlysunny" />
<path
   d="m 44.674954,8.7196582 c -0.857697,0 -1.470337,-0.7351684 -1.470337,-1.4703371 v -4.288484 c 0,-0.8576967 0.735169,-1.4703373 1.470337,-1.4703373 0.857697,0 1.470337,0.7351687 1.470337,1.4703373 V 7.126793 c 0,0.8576968 -0.61264,1.5928652 -1.470337,1.5928652 z M 62.44153,22.320279 h -4.165955 c -0.857696,0 -1.470337,-0.612641 -1.470337,-1.470338 0,-0.857696 0.612641,-1.470336 1.470337,-1.470336 h 4.165955 c 0.857697,0 1.470338,0.61264 1.470338,1.470336 0.122528,0.857697 -0.612641,1.470338 -1.470338,1.470338 z m -7.719271,-9.679721 c -0.367583,0 -0.735168,-0.122528 -1.102753,-0.490112 -0.61264,-0.61264 -0.61264,-1.592866 0,-2.082979 l 2.940675,-2.940674 c 0.612641,-0.6126405 1.592866,-0.6126405 2.082979,0 0.612641,0.6126405 0.612641,1.5928652 0,2.0829776 l -2.940676,2.9406754 c -0.122527,0.367584 -0.61264,0.490112 -0.980225,0.490112 z m 2.940676,22.422645 c -0.367585,0 -0.735169,-0.122528 -1.102754,-0.490113 l -2.940675,-2.940674 c -0.61264,-0.612641 -0.61264,-1.592866 0,-2.082978 0.612641,-0.61264 1.592866,-0.61264 2.082978,0 l 2.940676,2.940674 c 0.612641,0.612641 0.612641,1.592866 0,2.082978 -0.122529,0.367585 -0.612641,0.490113 -0.980225,0.490113 z M 35.117762,12.763087 c -0.367584,0 -0.735169,-0.122529 -1.102754,-0.490113 L 31.074335,9.4548267 c -0.612641,-0.6126399 -0.612641,-1.5928651 0,-2.0829775 0.61264,-0.6126406 1.592866,-0.6126406 2.082978,0 l 2.940673,2.9406748 c 0.612641,0.612641 0.612641,1.592865 0,2.082978 -0.245056,0.245056 -0.61264,0.367585 -0.980224,0.367585 z"
   id="path33"
   style="stroke-width:1.22529" />
<path
   d="m 47.738157,62.5095 h -36.26832 c -6.2489336,0 -11.39511429,-5.14618 -11.39511429,-11.395115 0,-4.901124 3.18573099,-9.312136 7.71927099,-10.782474 v -0.245056 c 0,-5.758821 4.6560683,-10.41489 10.4148893,-10.41489 1.347808,0 2.695618,0.245056 3.9209,0.857697 2.695617,-4.165955 7.351686,-6.616517 12.375339,-6.616517 8.209384,0 14.94843,6.739045 14.94843,14.948429 0,0.857696 -0.122529,1.715394 -0.245057,2.573091 5.146181,0.735168 9.189608,5.146181 9.189608,10.537417 C 58.275575,57.730905 53.619506,62.5095 47.738157,62.5095 Z M 18.086354,32.980224 c -3.9209,0 -7.10663,3.185732 -7.10663,7.106631 0,0.367584 0,0.735169 0.122528,1.225281 l 0.245056,1.592866 -1.5928657,0.245056 c -3.7983704,0.735169 -6.4939886,4.165957 -6.4939886,7.964327 0,4.533541 3.6758429,8.209383 8.2093833,8.209383 h 36.26832 c 4.043429,0 7.351687,-3.308258 7.351687,-7.351686 0,-4.043426 -3.308258,-7.351687 -7.351687,-7.351687 h -0.367584 l -2.450563,0.122529 0.735169,-2.328034 c 0.367585,-1.102754 0.612641,-2.328035 0.612641,-3.553316 0,-6.49399 -5.268709,-11.64017 -11.640171,-11.64017 -4.288483,0 -8.331912,2.450561 -10.292361,6.248934 l -0.857696,1.592865 -1.470338,-0.857697 c -1.225281,-0.980224 -2.57309,-1.225282 -3.9209,-1.225282 z"
   id="path35"
   style="stroke-width:1.22529" />
<path
   d="m 46.512876,11.292748 c -5.14618,-0.980224 -10.047305,2.450563 -10.905002,7.596745 -0.122528,0.490112 -0.122528,0.857696 -0.122528,1.347808 -0.122528,0.61264 0.367584,1.225281 1.102753,1.34781 1.347809,0.122527 1.225282,-1.225282 1.470338,-2.082977 0.735169,-3.798373 4.288484,-6.248935 8.086854,-5.636294 3.798373,0.735169 6.248934,4.288484 5.636295,8.086854 -0.122529,0.857698 -0.367585,1.715395 -0.857697,2.450563 -0.612641,0.857697 -1.592866,1.592866 -2.450563,2.205506 -0.735169,0.490113 -0.367584,1.592866 0.490112,1.715395 0.980226,0.245056 1.837922,-0.490114 2.573092,-1.225282 0.857695,-0.735169 1.592864,-1.837922 2.082976,-2.940675 0.245056,-0.612641 0.490113,-1.225282 0.612641,-1.837922 0.857697,-5.268708 -2.57309,-10.169833 -7.719271,-11.027531 z"
   id="path37"
   style="stroke-width:1.22529" />
</svg>
