<?xml version="1.0" encoding="UTF-8" standalone="no"?>
<svg
   xmlns:dc="http://purl.org/dc/elements/1.1/"
   xmlns:cc="http://creativecommons.org/ns#"
   xmlns:rdf="http://www.w3.org/1999/02/22-rdf-syntax-ns#"
   xmlns:svg="http://www.w3.org/2000/svg"
   xmlns="http://www.w3.org/2000/svg"
   xmlns:sodipodi="http://sodipodi.sourceforge.net/DTD/sodipodi-0.dtd"
   xmlns:inkscape="http://www.inkscape.org/namespaces/inkscape"
   version="1.1"
   id="weather-icon-snow"
   x="0px"
   y="0px"
   viewBox="0 0 64 64"
   style="enable-background:new 0 0 64 64;"
   xml:space="preserve"
   sodipodi:docname="snow.svg"
   inkscape:version="1.0.1 (3bc2e813f5, 2020-09-07)"><metadata
   id="metadata52"><rdf:RDF><cc:Work
       rdf:about=""><dc:format>image/svg+xml</dc:format><dc:type
         rdf:resource="http://purl.org/dc/dcmitype/StillImage" /></cc:Work></rdf:RDF></metadata><defs
   id="defs50" /><sodipodi:namedview
   pagecolor="#ffffff"
   bordercolor="#666666"
   borderopacity="1"
   objecttolerance="10"
   gridtolerance="10"
   guidetolerance="10"
   inkscape:pageopacity="0"
   inkscape:pageshadow="2"
   inkscape:window-width="3832"
   inkscape:window-height="2089"
   id="namedview48"
   showgrid="false"
   inkscape:zoom="15.640625"
   inkscape:cx="32"
   inkscape:cy="32"
   inkscape:window-x="3200"
   inkscape:window-y="67"
   inkscape:window-maximized="0"
   inkscape:current-layer="weather-icon-snow" />
<path
   id="snow"
   d="m 57.945424,30.747942 h -7.234113 l 3.060586,-3.060587 c 0.55647,-0.556469 0.55647,-1.391175 0,-1.947646 -0.55647,-0.556469 -1.391176,-0.556469 -1.947645,0 L 46.81602,30.747942 H 35.269262 l 8.207936,-8.207936 h 7.094996 c 0.695587,0 1.391175,-0.556471 1.391175,-1.391175 0,-0.695588 -0.556471,-1.391176 -1.391175,-1.391176 h -4.312645 l 5.147349,-5.14735 c 0.556471,-0.55647 0.556471,-1.391175 0,-1.947645 -0.556469,-0.556471 -1.391175,-0.556471 -1.947646,0 l -5.147349,5.147349 v -4.312644 c 0,-0.695588 -0.556469,-1.391176 -1.391174,-1.391176 -0.695588,0 -1.391177,0.556471 -1.391177,1.391176 v 7.094995 l -8.207934,8.207937 V 17.253539 l 5.008231,-5.008232 c 0.556471,-0.55647 0.556471,-1.391176 0,-1.947645 -0.55647,-0.556471 -1.391175,-0.556471 -1.947645,0 l -3.060587,3.060586 V 6.1241345 c 0,-0.6955877 -0.556471,-1.3911756 -1.391177,-1.3911756 -0.695587,0 -1.391175,0.5564703 -1.391175,1.3911756 v 7.2341135 l -3.060586,-3.060586 c -0.55647,-0.556471 -1.391176,-0.556471 -1.947646,0 -0.55647,0.556469 -0.55647,1.391175 0,1.947645 l 5.008232,5.008232 V 28.800297 L 22.331329,20.59236 v -7.094995 c 0,-0.695588 -0.55647,-1.391176 -1.391175,-1.391176 -0.695588,0 -1.391175,0.556471 -1.391175,1.391176 v 4.312644 L 14.401628,12.66266 c -0.556469,-0.556471 -1.391175,-0.556471 -1.947645,0 -0.55647,0.55647 -0.55647,1.391175 0,1.947645 l 5.14735,5.14735 h -4.312645 c -0.695588,0 -1.391175,0.55647 -1.391175,1.391176 0,0.695587 0.55647,1.391175 1.391175,1.391175 h 7.094995 l 8.207937,8.207936 H 17.044862 L 12.03663,25.739709 c -0.55647,-0.556469 -1.391176,-0.556469 -1.947645,0 -0.5564705,0.556471 -0.5564705,1.391177 0,1.947646 l 3.060586,3.060587 H 5.9154576 c -0.695587,0 -1.3911751,0.55647 -1.3911751,1.391175 0,0.695588 0.5564707,1.391176 1.3911751,1.391176 h 7.2341134 l -3.060586,3.060587 c -0.5564705,0.556469 -0.5564705,1.391175 0,1.947645 0.278234,0.278235 0.556469,0.417353 0.973822,0.417353 0.278235,0 0.695587,-0.139118 0.973823,-0.417353 l 5.008232,-5.008232 H 28.59162 l -8.207937,8.207936 h -7.094995 c -0.695588,0 -1.391175,0.55647 -1.391175,1.391175 0,0.695588 0.55647,1.391176 1.391175,1.391176 h 4.312645 L 12.5931,49.389695 c -0.55647,0.556469 -0.55647,1.391175 0,1.947645 0.278236,0.278235 0.556471,0.417353 0.973823,0.417353 0.278236,0 0.695588,-0.139118 0.973823,-0.417353 l 5.14735,-5.14735 v 4.312645 c 0,0.695588 0.55647,1.391175 1.391175,1.391175 0.695588,0 1.391176,-0.55647 1.391176,-1.391175 V 43.40764 l 8.207936,-8.207937 v 11.546758 l -5.008232,5.008232 c -0.556471,0.55647 -0.556471,1.391176 0,1.947645 0.278235,0.278236 0.556469,0.417354 0.973823,0.417354 0.417352,0 0.695588,-0.139118 0.973823,-0.417354 l 3.060586,-3.060586 v 7.234114 c 0,0.695587 0.55647,1.391175 1.391175,1.391175 0.695588,0 1.391176,-0.556471 1.391176,-1.391175 v -7.234114 l 3.060586,3.060586 c 0.278235,0.278236 0.556471,0.417354 0.973823,0.417354 0.417353,0 0.695588,-0.139118 0.973823,-0.417354 0.556472,-0.556469 0.556472,-1.391175 0,-1.947645 L 33.460734,46.746461 V 35.199703 l 8.207935,8.207937 v 7.094995 c 0,0.695588 0.556471,1.391175 1.391176,1.391175 0.695589,0 1.391176,-0.55647 1.391176,-1.391175 V 46.18999 l 5.14735,5.14735 c 0.278235,0.278235 0.55647,0.417353 0.973824,0.417353 0.417352,0 0.695587,-0.139118 0.973823,-0.417353 0.556469,-0.55647 0.556469,-1.391176 0,-1.947645 l -5.147351,-5.147351 h 4.312644 c 0.695588,0 1.391175,-0.556469 1.391175,-1.391175 0,-0.695588 -0.556469,-1.391175 -1.391175,-1.391175 H 43.616315 L 35.40838,33.252058 h 11.546757 l 5.008232,5.008232 c 0.278235,0.278235 0.556471,0.417353 0.973824,0.417353 0.417352,0 0.695588,-0.139118 0.973823,-0.417353 0.55647,-0.55647 0.55647,-1.391176 0,-1.947646 L 50.85043,33.252058 h 7.234112 c 0.695588,0 1.391176,-0.55647 1.391176,-1.391175 -0.278235,-0.556471 -0.834705,-1.112941 -1.530294,-1.112941 z"
   style="stroke-width:1.39117" />
</svg>
