<?xml version="1.0" encoding="UTF-8" standalone="no"?>
<svg
   xmlns:dc="http://purl.org/dc/elements/1.1/"
   xmlns:cc="http://creativecommons.org/ns#"
   xmlns:rdf="http://www.w3.org/1999/02/22-rdf-syntax-ns#"
   xmlns:svg="http://www.w3.org/2000/svg"
   xmlns="http://www.w3.org/2000/svg"
   xmlns:sodipodi="http://sodipodi.sourceforge.net/DTD/sodipodi-0.dtd"
   xmlns:inkscape="http://www.inkscape.org/namespaces/inkscape"
   version="1.1"
   id="weather-icon-tstorms"
   x="0px"
   y="0px"
   viewBox="0 0 64 64"
   style="enable-background:new 0 0 64 64;"
   xml:space="preserve"
   sodipodi:docname="thunderstorm.svg"
   inkscape:version="1.0.1 (3bc2e813f5, 2020-09-07)"><metadata
   id="metadata65"><rdf:RDF><cc:Work
       rdf:about=""><dc:format>image/svg+xml</dc:format><dc:type
         rdf:resource="http://purl.org/dc/dcmitype/StillImage" /></cc:Work></rdf:RDF></metadata><defs
   id="defs63" /><sodipodi:namedview
   pagecolor="#ffffff"
   bordercolor="#666666"
   borderopacity="1"
   objecttolerance="10"
   gridtolerance="10"
   guidetolerance="10"
   inkscape:pageopacity="0"
   inkscape:pageshadow="2"
   inkscape:window-width="3832"
   inkscape:window-height="2089"
   id="namedview61"
   showgrid="false"
   inkscape:zoom="15.640625"
   inkscape:cx="32"
   inkscape:cy="32"
   inkscape:window-x="3200"
   inkscape:window-y="67"
   inkscape:window-maximized="0"
   inkscape:current-layer="weather-icon-tstorms" />
<path
   d="m 16.179503,56.090301 c -0.239704,0 -0.479409,0 -0.719112,-0.119852 -0.838966,-0.359557 -1.07867,-1.318374 -0.719114,-2.157341 l 3.355863,-6.95143 c 0.359557,-0.838965 1.318375,-1.07867 2.157341,-0.719113 0.838966,0.359557 1.07867,1.318374 0.719113,2.15734 l -3.355863,6.951431 c -0.359556,0.479409 -0.838966,0.838965 -1.438228,0.838965 z m -7.9102475,0 c -0.2397046,0 -0.4794091,0 -0.7191137,-0.119852 C 6.7111763,55.610892 6.4714717,54.652075 6.831028,53.813108 l 3.355863,-6.95143 c 0.359556,-0.838965 1.318375,-1.07867 2.15734,-0.719113 0.838967,0.359557 1.07867,1.318374 0.719114,2.15734 l -3.3558633,6.951431 c -0.2397043,0.479409 -0.8389652,0.838965 -1.4382262,0.838965 z m 40.3902065,0 c -0.239704,0 -0.479408,0 -0.719113,-0.119852 -0.838965,-0.359557 -1.07867,-1.318374 -0.719113,-2.157341 l 3.355862,-6.95143 c 0.359557,-0.838965 1.318375,-1.07867 2.157341,-0.719113 0.838966,0.359557 1.07867,1.318374 0.719113,2.15734 l -3.355862,6.951431 c -0.239705,0.479409 -0.838967,0.838965 -1.438228,0.838965 z m -7.910248,0 c -0.239704,0 -0.479409,0 -0.719113,-0.119852 -0.838966,-0.359557 -1.078671,-1.318374 -0.719114,-2.157341 l 3.355863,-6.95143 c 0.359557,-0.838965 1.318376,-1.07867 2.15734,-0.719113 0.838968,0.359557 1.078671,1.318374 0.719114,2.15734 l -3.355863,6.951431 c -0.239705,0.479409 -0.838966,0.838965 -1.438227,0.838965 z"
   id="path54"
   style="stroke-width:1.19852" />
<path
   d="m 25.767684,63.640993 c -0.239704,0 -0.599262,-0.119852 -0.838967,-0.239705 -0.719113,-0.479409 -0.958816,-1.438226 -0.479407,-2.15734 L 33.917637,45.543304 H 23.969901 L 35.116158,29.722807 c 0.479409,-0.719113 1.438228,-0.838966 2.157341,-0.359557 0.719113,0.479409 0.838966,1.558079 0.359557,2.277193 l -7.670544,10.906554 h 9.468328 l -12.344782,20.25503 c -0.239704,0.47941 -0.838966,0.838966 -1.318374,0.838966 z"
   id="path56"
   style="stroke-width:1.19852" />
<path
   d="m 53.573406,19.295662 c 0.119852,-0.958818 0.239704,-1.917637 0.239704,-2.876454 0,-8.8690666 -7.191135,-16.06020134 -16.060201,-16.06020134 -5.393351,0 -10.427145,2.75660164 -13.423452,7.19113474 -1.318376,-0.5992612 -2.876455,-0.9588179 -4.314681,-0.9588179 -6.112465,0 -11.1462594,5.0337935 -11.1462594,11.1462595 v 0.359556 c -4.9139422,1.677931 -8.38965735,6.232317 -8.38965735,11.625668 0,6.711726 5.51320325,12.224929 12.22492975,12.224929 h 5.992612 c 1.917636,0 1.797783,-3.116158 0,-3.116158 h -5.992612 c -5.0337954,0 -8.9889191,-4.074976 -8.9889191,-8.988919 0,-4.314681 2.9963064,-8.030101 7.3109871,-8.869066 l 1.558079,-0.239705 -0.239704,-1.558079 C 12.22438,18.6964 12.22438,18.216991 12.22438,17.857434 c 0,-4.314681 3.595568,-7.9102474 7.910248,-7.9102474 1.438228,0 2.876454,0.3595564 4.194829,1.1985214 l 1.438228,0.838967 0.838965,-1.55808 c 2.277193,-4.1948282 6.591874,-6.8315777 11.385963,-6.8315777 7.071283,0 12.824191,5.7529079 12.824191,12.8241907 0,1.318375 -0.239705,2.636749 -0.599261,3.955124 l -0.95882,2.15734 2.516898,-0.119852 h 0.359556 c 4.554386,0 8.149953,3.71542 8.149953,8.149953 0,4.554385 -3.71542,8.149953 -8.149953,8.149953 h -6.831578 c -2.037488,0 -2.397045,3.116158 0,3.116158 h 6.831578 c 6.232317,0 11.385964,-5.153647 11.385964,-11.385964 0,-5.633055 -4.434533,-10.427145 -9.947735,-11.146258 z"
   id="path58"
   style="stroke-width:1.19852" />
</svg>
