<?xml version="1.0" encoding="UTF-8" standalone="no"?>
<svg
   xmlns:dc="http://purl.org/dc/elements/1.1/"
   xmlns:cc="http://creativecommons.org/ns#"
   xmlns:rdf="http://www.w3.org/1999/02/22-rdf-syntax-ns#"
   xmlns:svg="http://www.w3.org/2000/svg"
   xmlns="http://www.w3.org/2000/svg"
   xmlns:sodipodi="http://sodipodi.sourceforge.net/DTD/sodipodi-0.dtd"
   xmlns:inkscape="http://www.inkscape.org/namespaces/inkscape"
   id="weather-icon-unknown"
   class="weather-icon weather-icon-black unknown"
   viewBox="0 0 64 64"
   version="1.1"
   sodipodi:docname="unknown.svg"
   inkscape:version="1.0.1 (3bc2e813f5, 2020-09-07)">
  <metadata
     id="metadata80">
    <rdf:RDF>
      <cc:Work
         rdf:about="">
        <dc:format>image/svg+xml</dc:format>
        <dc:type
           rdf:resource="http://purl.org/dc/dcmitype/StillImage" />
      </cc:Work>
    </rdf:RDF>
  </metadata>
  <defs
     id="defs78" />
  <sodipodi:namedview
     pagecolor="#ffffff"
     bordercolor="#666666"
     borderopacity="1"
     objecttolerance="10"
     gridtolerance="10"
     guidetolerance="10"
     inkscape:pageopacity="0"
     inkscape:pageshadow="2"
     inkscape:window-width="3832"
     inkscape:window-height="2089"
     id="namedview76"
     showgrid="false"
     inkscape:zoom="15.640625"
     inkscape:cx="32"
     inkscape:cy="32"
     inkscape:window-x="3200"
     inkscape:window-y="67"
     inkscape:window-maximized="0"
     inkscape:current-layer="weather-icon-unknown" />
  <path
     d="M 51.856589,52.506656 H 12.970768 c -6.6188623,0 -12.0557855,-5.436923 -12.0557855,-12.055786 0,-5.200536 3.4276255,-9.8101 8.2735789,-11.464817 v -0.354582 c 0,-6.027893 4.9641466,-10.99204 10.9920396,-10.99204 1.536522,0 2.95485,0.354582 4.254984,0.945552 2.954849,-4.373178 7.800804,-7.091639 13.237726,-7.091639 8.746356,0 15.837995,7.091639 15.837995,15.837993 0,0.945552 -0.118194,1.891104 -0.236389,2.836657 5.555118,0.709164 9.810101,5.436923 9.810101,11.110234 0,6.146087 -5.082341,11.228428 -11.228429,11.228428 z M 20.180601,20.830668 c -4.254983,0 -7.800802,3.54582 -7.800802,7.800803 0,0.354582 0,0.827358 0.118194,1.300134 l 0.236388,1.536522 -1.536522,0.236388 c -4.1367894,0.827358 -7.2098329,4.491371 -7.2098329,8.746355 0,4.964147 4.0185954,8.864548 8.8645479,8.864548 h 38.885821 c 4.491371,0 8.037192,-3.664013 8.037192,-8.03719 0,-4.491372 -3.664015,-8.037191 -8.037192,-8.037191 h -0.354581 l -2.363881,0.118194 0.709164,-2.245686 c 0.354583,-1.300134 0.59097,-2.600268 0.59097,-3.900402 0,-6.973445 -5.673311,-12.646757 -12.646756,-12.646757 -4.727759,0 -8.982743,2.600269 -11.228429,6.737058 l -0.827357,1.418328 -1.418328,-0.827358 c -1.18194,-0.709164 -2.600268,-1.063746 -4.018596,-1.063746 z"
     id="path67"
     style="stroke-width:1.18194" />
  <path
     d="m 33.18194,40.096288 c -0.827358,0 -1.536522,-0.709164 -1.536522,-1.536522 0,-2.245686 0.118194,-3.782208 1.891103,-5.673311 l 1.063746,-1.063746 c 1.418329,-1.418328 2.245686,-2.36388 2.127493,-3.664014 -0.118194,-1.418327 -0.827359,-2.245685 -2.363881,-2.600267 -1.181939,-0.354582 -2.718461,0.118194 -3.545819,1.063746 -0.472776,0.472776 -0.709164,1.300133 -0.709164,2.127491 0.118194,0.827358 -0.59097,1.654716 -1.418328,1.654716 -0.827358,0 -1.654716,-0.59097 -1.654716,-1.418328 -0.118194,-1.536522 0.472776,-3.309431 1.536522,-4.373177 1.654716,-1.77291 4.373178,-2.600268 6.737058,-2.009298 2.718462,0.709164 4.491371,2.836656 4.609566,5.555117 0.118194,2.718462 -1.654717,4.491372 -3.073045,5.9097 l -0.945552,0.945551 c -0.945552,1.063746 -1.063746,1.77291 -1.063746,3.664014 -0.118194,0.709164 -0.827358,1.418328 -1.654715,1.418328 z"
     id="path69"
     style="stroke-width:1.18194" />
  <circle
     cx="33.181942"
     cy="44.587658"
     id="ellipse71"
     r="1.6547158"
     style="stroke-width:1.18194" />
  <path
     d="m 33.18194,46.833345 c -1.18194,0 -2.245686,-0.945552 -2.245686,-2.245686 0,-1.18194 0.945552,-2.245686 2.245686,-2.245686 1.181939,0 2.245685,1.063746 2.245685,2.245686 0,1.18194 -0.945552,2.245686 -2.245685,2.245686 z m 0,-3.309432 c -0.59097,0 -0.945552,0.472776 -0.945552,0.945552 0,0.59097 0.472776,0.945552 0.945552,0.945552 0.590969,0 0.945551,-0.472776 0.945551,-0.945552 0.118194,-0.472776 -0.354582,-0.945552 -0.945551,-0.945552 z"
     id="path73"
     style="stroke-width:1.18194" />
</svg>
